<?xml version="1.0" encoding="UTF-8"?>
<svg width="100px" height="30px" viewBox="0 0 100 30" version="1.1" xmlns="http://www.w3.org/2000/svg" xmlns:xlink="http://www.w3.org/1999/xlink">
    <!-- Generator: Sketch 51.3 (57544) - http://www.bohemiancoding.com/sketch -->
    <title>Artboard</title>
    <desc>Created with Sketch.</desc>
    <defs></defs>
    <g id="Artboard" stroke="none" stroke-width="1" fill="none" fill-rule="evenodd">
        <path d="M16.0986878,5.65229768 L21.3230568,5.65229768 L15.2049684,29.1913088 L6.07259527,29.1913088 L0,5.65229768 L5.36671842,5.65229768 L10.6160353,24.8107634 L16.0986878,5.65229768 Z M47.2481075,29.1908685 L47.2481075,0.000440248963 L52.3800228,0.000440248963 L52.3800228,29.1908685 L47.2481075,29.1908685 Z M56.1398075,5.13529062 L56.1398075,0.000440248963 L61.2717228,0.000440248963 L61.2717228,5.13529062 L56.1398075,5.13529062 Z M56.1398075,29.1908685 L56.1398075,7.70198203 L61.2717228,7.70198203 L61.2717228,29.1908685 L56.1398075,29.1908685 Z M67.4554095,8.19492178 C69.0696809,6.15653734 71.7611112,5.13514386 75.5282336,5.13514386 C79.2924207,5.13514386 81.9838515,6.15653734 83.6010577,8.19492178 C85.215329,10.2362413 86.0254,13.2945517 86.0254,17.3742556 C86.0254,21.4539595 85.2402768,24.5298802 83.6714988,26.60055 C82.1012531,28.6712199 79.3878095,29.7072886 75.5282336,29.7072886 C71.66719,29.7072886 68.9522793,28.6712199 67.3835008,26.60055 C65.8147228,24.5298802 65.0296,21.4539595 65.0296,17.3742556 C65.0296,13.2945517 65.8367357,10.2362413 67.4554095,8.19492178 Z M71.2900378,23.4938115 C72.0120573,24.7485405 73.4238108,25.3766388 75.5282336,25.3766388 C77.6282539,25.3766388 79.0414751,24.7485405 79.7634946,23.4938115 C80.4855141,22.2405499 80.8465241,20.1830877 80.8465241,17.327295 C80.8465241,14.4715022 80.4620336,12.447793 79.6945212,11.2546998 C78.9240734,10.063074 77.5358,9.46579361 75.5282336,9.46579361 C73.5191996,9.46579361 72.1294585,10.063074 71.3619461,11.2546998 C70.5914983,12.447793 70.2084759,14.4715022 70.2084759,17.327295 C70.2084759,20.1830877 70.5680183,22.2405499 71.2900378,23.4938115 Z M89.7845975,5.65288469 L89.7845975,0 L94.8695523,0 L94.8695523,5.13485037 L100,5.13485037 L100,10.2697007 L94.8695523,10.2697007 L94.8695523,20.3867794 C94.8695523,22.3018922 95.010434,23.572764 95.2921979,24.2008623 C95.5739614,24.8274931 96.2974485,25.1415422 97.4582564,25.1415422 L100,25.1386072 L100,29.096507 C97.8955772,29.5030099 97.5463075,29.7084626 96.4486029,29.7084626 C93.7806527,29.7084626 92.2573676,29.096507 91.2682598,27.8725959 C90.2791515,26.6486846 89.7845975,24.3402766 89.7845975,20.9532419 L89.7845975,10.0304951 L89.7845975,5.65288469 Z M43.332032,24.7190434 L44.6806826,24.6324598 L44.6806826,29.2859638 C43.467044,29.7731802 42.577727,29.7423623 41.6032942,29.6146881 C40.2223585,29.4327157 39.1789523,29.0570307 38.4466602,28.7106962 C38.4451925,28.7106962 38.4422577,28.7092286 38.4393224,28.7077611 C38.2015842,28.5947621 37.9873266,28.4846982 37.8185618,28.3849068 C37.787744,28.3658291 37.759861,28.3482189 37.7290432,28.3291411 C37.3856436,28.1207534 37.2007361,27.9666638 37.2007361,27.9666638 C34.6898104,29.1274717 32.162742,29.7086093 29.622466,29.7086093 C24.9454817,29.7086093 22.6062557,27.2123589 22.6062557,22.2227929 C22.6062557,19.8380739 23.2431592,18.1122711 24.514031,17.0453845 C25.7849027,15.9784979 27.7381711,15.3357244 30.3738359,15.1155965 L36.4478988,14.5975622 L36.4478988,12.9025773 C36.4478988,11.6478482 36.1734726,10.7688041 35.6231527,10.2654449 C35.0728328,9.76502079 34.2656975,9.51260747 33.1988108,9.51260747 C31.1912442,9.51260747 28.6803185,9.63881411 25.6675012,9.88975996 L23.9725163,9.9836812 L23.9725163,6.3589083 C27.393304,5.54296751 30.5396656,5.1349971 33.4116008,5.1349971 C36.2835365,5.1349971 38.3542062,5.7557578 39.625078,6.99434419 C40.8959498,8.23439805 41.5313859,10.2038091 41.5313859,12.9025773 L41.5313859,22.8391511 C41.5416585,23.0578115 41.5533988,23.2500565 41.5710087,23.3924059 C41.6150344,23.7563507 41.7735266,24.0674648 42.0494203,24.3272157 C42.3253137,24.5884342 42.7523618,24.7190434 43.332032,24.7190434 Z M36.4478988,24.4827728 L36.4478988,18.2208676 L30.9857915,18.7403694 C28.8226679,18.9282119 27.7381711,20.1051624 27.7381711,22.2697535 C27.7381711,24.4358122 28.6964612,25.5188415 30.6101065,25.5188415 C32.1788847,25.5188415 33.8430519,25.2678957 35.5996726,24.7645365 L36.4478988,24.4827728 Z" id="Valiot-logo-white" fill="#000000" fill-rule="nonzero"></path>
    </g>
</svg>